<?xml version="1.0" encoding="utf-8"?>
<!-- Generator: Adobe Illustrator 27.0.0, SVG Export Plug-In . SVG Version: 6.00 Build 0)  -->
<svg version="1.1" id="Layer_1" xmlns="http://www.w3.org/2000/svg" xmlns:xlink="http://www.w3.org/1999/xlink" x="0px" y="0px"
	 viewBox="0 0 433.79 477.93" style="enable-background:new 0 0 433.79 477.93;" xml:space="preserve">
<style type="text/css">
	.st0{fill:#111725;}
	.st1{fill:#FFFFFF;}
	.st2{fill:#2D506E;}
	.st3{fill:#F07D23;}
	.st4{fill:#F28423;}
	.st5{fill:#3B4A61;}
	.st6{fill:#394B63;}
	.st7{fill:#474654;}
	.st8{fill:#49424E;}
	.st9{fill:#E46B27;}
	.st10{fill:#4F3D43;}
	.st11{fill:#E16727;}
	.st12{fill:#66372D;}
	.st13{fill:#4E393B;}
	.st14{fill:#6F3B2F;}
	.st15{fill:#9A4427;}
	.st16{fill:#B85028;}
	.st17{fill:#9D4528;}
	.st18{fill:#C05328;}
	.st19{fill:#CF5E27;}
	.st20{fill:#E06827;}
	.st21{fill:#122134;}
	.st22{fill:#121A2A;}
	.st23{fill:#111A29;}
	.st24{fill:#271E24;}
	.st25{fill:#653325;}
	.st26{fill:#492924;}
	.st27{fill:#4A2924;}
	.st28{fill:#873E24;}
	.st29{fill:#2B1F24;}
	.st30{fill:#663425;}
	.st31{fill:#4C2A25;}
	.st32{fill:#151926;}
	.st33{fill:#2E2024;}
	.st34{fill:#2F2024;}
	.st35{fill:#2E506D;}
	.st36{fill:#3F495E;}
	.st37{fill:#4A434F;}
	.st38{fill:#5A3D3C;}
	.st39{fill:#AD4D28;}
	.st40{fill:#86402C;}
	.st41{fill:#394C64;}
	.st42{fill:#503F45;}
	.st43{fill:#683B33;}
	.st44{fill:#974529;}
	.st45{fill:#B34F28;}
	.st46{fill:#E76E26;}
	.st47{fill:#EA7325;}
	.st48{fill:#DE6427;}
	.st49{fill:#AA4928;}
	.st50{fill:#C35228;}
	.st51{fill:#C65328;}
	.st52{fill:#D45729;}
	.st53{fill:#334D68;}
	.st54{fill:#364A63;}
	.st55{fill:#4B3538;}
	.st56{fill:#412F33;}
	.st57{fill:#4B4451;}
	.st58{fill:#434759;}
	.st59{fill:#474250;}
	.st60{fill:#4A3D45;}
	.st61{fill:#5B4043;}
	.st62{fill:#613733;}
	.st63{fill:#414558;}
	.st64{fill:#713D33;}
	.st65{fill:#4B4653;}
	.st66{fill:#4F2D2A;}
	.st67{fill:#593C40;}
	.st68{fill:#444556;}
	.st69{fill:#452A2B;}
	.st70{fill:#5C4144;}
	.st71{fill:#9B4A35;}
	.st72{fill:#86463A;}
</style>
<g>
	<path class="st0" d="M-3.58-2.76c147.23,0,294.47,0,441.7,0c0,161.33,0,322.66,0,483.99c-1.72,0.93-3.59,0.47-5.38,0.47
		c-143.56,0.02-287.12,0.02-430.69,0.01c-1.8,0-3.63,0.31-5.45-0.34c-1.22-1.63-0.64-3.53-0.64-5.28
		C-4.07,318.11-4.07,160.12-4.05,2.13C-4.05,0.5-4.46-1.2-3.58-2.76z"/>
	<path class="st1" d="M-3.58-2.76c0,161.14,0,322.27,0,483.99c147.38,0,294.54,0,441.7,0c-0.22,0.31,0.5,1.04-0.5,1.01
		c-1.33-0.04-2.66-0.01-3.99-0.01c-146.07,0-292.14,0-438.21,0c0-160.17,0-320.33,0.06-480.5C-4.51,0.27-5.66-1.65-3.58-2.76z"/>
	<path class="st2" d="M25.41,199.77c-3.28-12.42-6.1-24.91-8.2-37.61c-2.67-16.17-2.53-32.44-1.66-48.61
		c1.12-20.85,6.24-40.95,18-58.53c9.95-14.86,23.54-25.3,41.22-30.05c7.55-2.03,15.14-3.52,22.89-3.68
		c16.57-0.34,32.37,3.4,47.72,9.56c13.79,5.53,27.29,11.75,41.4,16.51c12.96,4.37,26.18,5.7,39.6,4.57
		c11.54-0.97,22.55-4.66,33.35-8.81c14.02-5.39,27.47-12.23,41.91-16.58c12.11-3.65,24.41-5.98,37.08-5.25
		c17.87,1.02,34.53,5.82,48.53,17.51c10.9,9.1,18.62,20.56,23.71,33.83c4.33,11.31,6.9,22.99,8.38,35.02
		c1.57,12.77,1.17,25.55,0.65,38.28c-0.48,11.82-2.57,23.55-5.31,35.11c-1.56,6.56-3.04,13.14-4.56,19.71
		c-4.09-2.15-1.86-5.43-1.03-8c1.85-5.77,3.2-11.63,3.98-15.4c-0.57,3.22-1.6,8.55-3.77,13.52c-1.94-0.28-2.08-1.5-2.4-2.6
		c0.6-9.1,3.02-17.9,4.35-26.88c0.8-5.4,1.2-10.83,1.73-16.25c1.09-2.75,0.68-5.63,0.75-8.47c-0.03-3.78,0.08-7.56-0.08-11.33
		c-0.61-3.33,0.81-6.77-0.54-10.07c-0.46-1.88-0.28-3.81-0.4-5.71c-0.24-1.54-0.08-3.13-0.62-4.63c-0.3-1.28-0.24-2.61-0.51-3.89
		c-2.69-17-7.92-33.02-18.8-46.65c-12.5-15.66-29.16-23.52-48.91-25.66c-21.76-2.36-41.71,3.78-61.3,12.15
		c-10.69,4.57-21.37,9.17-32.4,12.93c-24.15,8.24-47.93,7.4-71.59-2.07c-15.42-6.17-30.46-13.33-46.34-18.31
		c-14.91-4.67-30.18-6.75-45.7-4.14c-30.39,5.1-48.79,23.85-58.13,52.39c-3.01,9.18-4.84,18.66-5.53,28.33
		c-0.16,1.35-0.1,2.73-0.41,4.07c-0.97,2.13-0.45,4.39-0.61,6.6c-0.1,5.58-0.01,11.16-0.04,16.74c0.04,2.56-0.28,5.16,0.72,7.63
		c0.98,14.63,3.41,29.02,6.83,43.26c0.62,2.57,1.4,5.15,0.95,7.85c-1.12,2.61-2.13,2.04-3.11-0.12c-1.23-2.71-1.75-5.66-2.38-8.51
		c-0.92-4.15-2.06-8.25-2.57-11.33c1.23,5.59,2.76,12.28,4.46,18.92C27.18,196.9,28.4,198.93,25.41,199.77z"/>
	<path class="st3" d="M192.92,368.63c-1.05,5.85-2.09,11.7-3.14,17.54c-1.96,10.87-3.7,21.79-5.96,32.6
		c-2.7,12.94-6.12,25.74-14.12,36.61c-7.09,9.64-16.73,15.48-28.71,16.66c-6.09,0.6-12.14-0.56-17.83-3.04
		c0.6-2.45,2.39-1.88,3.94-1.39c2.44,0.76,5.04,1.02,6.83,2.09c-1.22-0.41-2.88-1.14-4.67-1.58c-1.64-0.4-3.32-1.16-1.78-3.4
		c4.79-0.26,9.58,0.4,14.37,0.05c2.42-0.56,4.87-0.99,7.21-1.86c10.26-3.99,16.3-11.98,20.56-21.67c3.14-7.17,5.04-14.7,6.78-22.29
		c0.58-3.09,1.48-6.11,1.97-9.22c3.11-13.8,5.03-27.83,8.19-41.62c0.54-2.38,0.86-4.92,2.94-6.64c3.66,0.38,2.29,2.68,1.81,4.7
		c-2.17,9.13-4.07,18.31-5.43,26.65c1.66-8.24,2.83-17.54,5.74-26.42C193.66,366.73,193.4,367.64,192.92,368.63z"/>
	<path class="st4" d="M315.33,468c-5.18,2.07-10.44,4-16.05,4.17c-10.24,0.32-19.04-3.44-26.57-10.28
		c-8.37-7.6-12.69-17.59-15.98-28.05c-4.06-12.9-6.31-26.22-8.13-39.61c-0.8-5.87-2.77-11.56-3.02-17.54
		c-0.26-0.61-0.54-1.27-0.07-1.86c0.55-0.69,1.13-0.39,1.62,0.13c0.83,0.87,1.32,1.96,1.4,3.11c0.48,6.71,2.55,13.16,3.1,19.19
		c-1.09-4.21-1.08-9.26-2.46-14.1c-0.5-1.76-1.87-4.36,1.84-4.7c3.87,5.96,3.24,13.07,4.93,19.58c1.4,5.43,2,11.06,3.15,16.56
		c1.1,6.12,3,12.04,4.9,17.94c2.53,9.08,6.41,17.39,13.41,23.98c3.83,3.6,8.23,6.1,13.36,7.3c5.55,1.79,11.16,0.81,16.75,0.37
		c1,0.81,4.42,2.02,6.36,2.29C314.69,466.61,315.46,466.9,315.33,468z"/>
	<path class="st5" d="M408.14,188.75c0.12,0.44,0.24,0.89,0.52,1.93c2.13-7.44,3.59-14.44,5.09-21.96c2.18,1.94,1.49,3.94,1.1,5.65
		c-1.69,7.3-3.56,14.56-5.31,21.84c-0.37,1.55-1.04,3.21,0.58,4.53c-4.09,15.62-10.19,30.58-15.28,45.87
		c-4.15,12.48-7.38,25.19-9.57,38.16c-0.27,1.62-1.28,3.08-1.03,4.81c-4.75-2.39-1.05-5.79-1.04-8.78
		c-1.31,1.31-2.27,1.03-2.93-0.63c-0.66-2.18-0.1-4.28,0.38-6.38c4.07-17.65,9.33-34.94,15.64-51.93
		c3.47-9.34,6.32-18.88,8.89-28.51C405.65,191.58,405.52,189.22,408.14,188.75z"/>
	<path class="st6" d="M25.41,199.77c1.57-1.19,0.78-2.58,0.42-4.01c-1.79-7.15-3.53-14.3-5.21-21.47c-0.32-1.35-0.77-2.86,0.82-4.33
		c1.23,1.93,1.66,3.82,1.96,5.93c1.01,7.14,3.09,14.05,5.03,20.99c0.03,0.12,0.23,0.3,0.26,0.29c0.26-0.14,0.5-0.32,0.75-0.48
		c1.89,0.11,2.37,1.65,2.83,3.02c7.89,23.54,17.25,46.61,22.58,70.96c0.42,1.94,1,3.87,0.26,5.86c-3.06,2.96-3.42-0.6-3.54-1.9
		c-0.39-4.4-1.98-8.5-2.59-12.26c0.57,2.33,1.32,5.18,1.93,8.05c0.37,1.74,1.73,4.35-1.59,5.2c-2.53-13.32-6.62-26.21-11.29-38.87
		C33.53,224.51,29.13,212.26,25.41,199.77z"/>
	<path class="st7" d="M49.34,275.61c1.69-1.89,0.87-3.92,0.43-5.99c-0.79-3.76-2.3-7.4-2.55-11.79c2.61,1.45,2.44,3.7,2.94,5.44
		c1.25,4.38,2.11,8.88,3.14,13.32c0.03,0.14,0.1,0.31,0.21,0.37c0.34,0.2,0.61,0.06,0.76-0.34c2.27,0.11,2.52,2.02,2.81,3.54
		c3.19,16.65,5.78,33.38,6.65,50.33c-0.14,0.97-0.36,2.39-1.16,2.54c-1.85,0.34-1.74,0.9-1.36,2.53c0.42,1.8,1.3,4.35-1.95,4.94
		c-1.49-4.05-1.25-8.39-1.91-12.57c-1.79-11.46-2.88-23.02-4.83-34.48C51.51,287.5,50.35,281.56,49.34,275.61z"/>
	<path class="st8" d="M381.24,280.58c0.3,0.46,0.71,0.75,0.97,0.07c0.6-1.58,1.1-3.21,1.66-4.88c1.89,0.95,1.43,2.19,1.19,3.21
		c-0.45,1.89-1.31,3.7-1.58,5.6c-0.23,1.66-0.96,3.57,0.76,5.01c-2.99,19.96-5.97,39.93-8.96,59.89c-2.04-0.59-4.61-0.31-5.24-3.22
		c0.34-11.29,2.68-22.33,4.09-33.48c0.89-7.03,0.86-14.24,3.38-21.02c1.93-2.78,2.86-5.78,1.99-9.18
		C379.66,281.54,379.79,280.49,381.24,280.58z"/>
	<path class="st9" d="M250.52,378.47c-1.33,1.01-1.1,2.55-0.7,3.66c2.08,5.78,1.69,12.03,3.61,17.82c0.41,1.23,0.1,2.25-1.41,3.17
		c-2.77-9.31-2.86-18.94-5.71-27.87c0.46-0.68-0.89-0.3-0.34,0.07c0.55,0.37-0.05-0.24-0.21,0.41c-0.08,0.32-0.12,0.65-0.18,0.98
		c-2.29-7.01-3.38-14.35-5.83-21.33c-3-8.55-5.78-17.2-10.99-24.75c-2.69-3.89-5.87-7.21-10.88-7.97c-0.71-1.55-0.73-1.61-0.07-1.79
		c3.09-0.84,5.43,0.73,7.66,2.49c4.53,3.56,7.37,8.41,9.79,13.49c0.92,1.93,1.92,3.83,2.51,5.46c-2.97-6.55-5.89-13.59-11.9-18.71
		c-0.96-0.82-2.05-1.85-0.94-3.37c2.6-0.86,4.02,1.05,5.53,2.49c6.43,6.16,9.52,14.28,12.71,22.3c1.41,3.54,2.38,7.25,3.73,10.82
		c1.45,5.54,2.84,11.09,4.15,16.66C251.51,374.49,252.48,376.64,250.52,378.47z"/>
	<path class="st10" d="M59.26,340.5c1.8-1.81,1.11-3.9,0.48-5.85c-0.6-1.88-0.63-3.64-0.22-5.5c2.37,0.42,1.25,2.66,2.29,4.19
		c0.25-0.98,0.36-1.42,0.47-1.86c2.28,0.2,2.4,2.15,2.6,3.66c2.3,17.61,5.97,34.95,10.1,52.2c-0.13,1.8-0.34,3.81-2.32,4.35
		c-2.5,0.68-2.17-2.28-3.47-3.25c-2.53-5.54-3.31-11.56-4.62-17.41C62.34,360.94,60.69,350.73,59.26,340.5z"/>
	<path class="st11" d="M192.92,368.63c-0.12-0.45-0.23-0.91-0.54-2.13c-2.95,11.55-5.09,22.53-7.01,34.39
		c-1.87-2.06-1.54-3.58-1.15-5.11c2.61-10.45,3.47-21.25,6.55-31.61c0.27-0.91,0.28-1.99-0.74-2.67c-1.83-1.94-0.67-4.04-0.15-5.99
		c1.39-5.21,3.36-10.24,5.39-15.23c2.62-6.41,5.96-12.4,10.79-17.42c1.42-1.47,2.81-3.38,5.39-2.56c1.35,1.94-0.15,3.24-1.32,4.16
		c-4.86,3.83-7.2,9.29-9.37,13.51c1.12-2.53,3.03-5.96,5.26-9.21c0.89-1.3,1.74-2.95,3.85-1.98c0.09,0.04,0.15,0.26,0.14,0.39
		c0,0.16-0.09,0.32-0.13,0.47c-7.67,10.33-11.48,22.34-14.99,34.49C194.25,364.3,194.17,366.64,192.92,368.63z"/>
	<path class="st12" d="M366.36,388.42c-1.13,6.68-3.51,12.99-5.98,19.24c-3.21,8.1-6.1,16.36-10.91,23.73
		c-0.48,0.14-0.89,0.4-1.2,0.79c-0.84,1.05-1.19,3.12-3.19,1.98c-1.68-0.96-1.06-2.57-0.48-3.93c0.66-1.53,1.02-3.09,1.14-4.74
		c3.4-8.59,7.8-16.75,10.89-25.49c1.25-3.53,1.5-7.52,4.17-10.49C362.68,389.38,364.46,388.59,366.36,388.42z"/>
	<path class="st13" d="M366.36,388.42c-1.54,0.77-1.38,2.82-2.83,3.71c-1.74-0.06-0.72-2.37-2.14-2.69
		c-1.1-1.75-0.56-3.56-0.05-5.29c3.04-10.37,4.95-20.99,7.05-31.57c0.38-1.93,0-4.51,2.9-5.1c0.79,0.97,0.92,0.22,1.07-0.42
		c0.14-0.64,0.25-1.29,1.2-1.17c1.47,0.74,0.01,2.96,1.73,3.61c-1.78,11.97-4.31,23.78-7.34,35.49
		C367.65,386.11,367.8,387.71,366.36,388.42z"/>
	<path class="st14" d="M69.19,388.44c1.94-0.17,1.51,2.15,2.85,2.7c1.71-0.06,0.69-2.38,2.12-2.71c1.33,0.57,1.95,1.76,2.35,3.02
		c3.23,10.19,7.35,20.04,11.31,29.94c0.18,1.26,0.23,2.54,0.57,3.79c0.36,1.33,0.2,2.53-1.1,3.37c-1.58,1.02-2.21-0.59-3.23-1.12
		c-5.06-8.9-8.64-18.43-11.75-28.14C71.16,395.72,69.4,392.29,69.19,388.44z"/>
	<path class="st15" d="M346.48,426.42c1.36,0.74,0.47,1.56,0.16,2.46c-0.54,1.57-2.18,2.89-1.44,4.9c2.07,0.2,1.92-1.68,2.78-2.49
		c0.58-0.55,1.05-0.75,1.48,0.11c-5.63,9.74-11.24,19.5-19.93,26.98c-1.63,0.19-3.33,2.39-4.85,0.29c-1.43-1.97,0.54-3.27,1.62-4.59
		c0.84-1.02,1.61-2.05,2.08-3.29c3.58-5.95,8.81-10.7,12.1-16.85C342.6,431.53,343.07,427.79,346.48,426.42z"/>
	<path class="st16" d="M209.87,327.64c-1.48-1.52-2.06,0.29-2.44,0.93c-2.09,3.49-4.65,6.71-6.05,10.63
		c-0.52,1.44-0.99,3.12-2.53,4.02c-1.36-0.6-1-1.59-0.57-2.47c3.11-6.34,5.84-12.94,11.44-17.68c0.85-0.72,1.86-1.43,1.96-2.74
		c0.17-0.18,0.33-0.37,0.5-0.56c2.88-1.86,6.19-1.49,9.38-1.81c1.64,0.21,2.73,1.08,3.24,2.66c0.52,1.29,1.61,2.12,2.59,2.98
		c6.38,5.53,9.25,13.11,12.12,20.68c0.28,0.74,0.39,1.62-0.09,2.47c-1.39,0.2-1.3-0.97-1.68-1.78c-3.19-6.89-5.83-14.12-11.58-19.48
		c-2.34-2.19-4.94-3.87-8.31-3.85c-0.12,0-0.35,0.18-0.34,0.2c0.11,0.28,0.25,0.54,0.38,0.8c-0.57,0.7-1.28,0.98-2.17,0.78
		c-1.7-0.01-3.09,0.49-3.79,2.2C211.44,326.52,210.78,327.22,209.87,327.64z"/>
	<path class="st17" d="M84.05,427.43c0.53-0.94,0.9-0.53,1.32,0.11c0.43,0.64,1.03,0.75,1.65,0.27c0.56-0.43,0.56-0.95,0.51-1.68
		c-0.09-1.26-2.49-2.26-0.45-3.74c3.49,1.35,3.75,5.15,5.74,7.65c1.31,1.65,2.14,3.68,3.4,5.4c2.27,4.57,6.75,7.69,8.38,12.68
		c-2.19,4.17-3.2,4.34-6.01,1.06c-1.12-1.31-1.52-3.31-3.55-3.78C90.73,439.82,87.08,433.82,84.05,427.43z"/>
	<path class="st18" d="M95.04,445.43c1.11-1.56,1.71-0.03,2.12,0.52c1.28,1.71,2.32,3.61,4.18,4.84c1.81,0.2,1.35-2.1,2.67-2.45
		c4.52,1.4,6.5,6.13,10.57,8.11c1.58,1.57,3.92,2.26,5.06,4.34c0.69,1.74,1.84,3.45,0.57,5.41c-1.99,0.61-3.27-1.4-5.05-1.16
		C106.91,460.09,100.48,453.26,95.04,445.43z"/>
	<path class="st19" d="M329.44,451.07c0.19,3.41-3.86,4.2-4.53,6.94c1.55,2.34,3.19-1.78,4.62,0.37c-4.28,3.88-8.86,7.31-14.2,9.63
		c-2.5-1.68-4.52,0.83-6.85,0.84c-0.91,0-1.82,0.73-2.68-0.4c0.31-1.68,2.27-1.49,3.09-2.59c0.05-0.07-0.06-0.32-0.16-0.43
		c-0.1-0.12-0.27-0.18-0.41-0.27c0.55-2.82,3.31-2.78,5.15-3.87c2.09-1.25,4.34-2.21,6.25-3.75
		C323.38,455.99,324.98,451.38,329.44,451.07z"/>
	<path class="st20" d="M115.17,465.03c1.78-1.74,2.83,0.91,4.4,0.65c2.18-1.66-2.11-2.74-0.5-4.41c3.44-0.34,6.49,0.13,8.02,3.81
		c0.37,1.49,1.37,2.11,2.85,2.18c2.04,0.09,3.62,1.28,5.58,2.44c-3.15,1.37-5.66-0.55-8.3-0.92c-1.43-0.2-2.76-1.07-4.06,0.22
		C120.29,468.09,117.72,466.59,115.17,465.03z"/>
	<path class="st9" d="M211.91,325.64c-0.09-2.07,1.24-2.85,3.79-2.2C214.44,324.17,213.17,324.91,211.91,325.64z"/>
	<path class="st21" d="M414.22,114.94c1.76,3.24,0.68,6.71,0.86,10.08c-1.31,3.97-1.49,7.94,0,11.91c-0.25,2.69,0.91,5.53-0.86,8.06
		c-0.5,0.02-0.84-1.2-0.95-0.64c-1.84,9.65-1.81,9.66-11.07,7.57c-6.49-1.47-7.43-2.62-7.45-9.57c-0.04-15.43-0.88-30.79-3.95-45.95
		c-0.42-2.08-0.7-4.3-2.54-5.79c-1.87-2-2.59-4.6-3.69-7.01c-9.49-20.69-25.21-31.62-48.35-32c-20.11-0.33-37.95,7.13-55.8,14.84
		c-15.12,6.54-30.41,12.38-46.95,14.37c-21.51,2.59-42.3,0.06-62.63-7.44c-13.71-5.06-26.82-11.56-40.57-16.54
		c-11.94-4.32-24.13-6.09-36.69-5c-16.47,1.43-29.05,9.45-38.07,23.27c-2.16,3.31-3.3,7.27-6.35,10
		c-4.25,6.99-5.05,14.96-6.58,22.75c-0.76,3.85-1.28,7.51,0.95,11.03c0.58,6.49,1.29,12.97-0.46,19.39
		c-2.58,1.7-2.65-0.39-2.72-1.97c-0.17-3.97-0.04-7.95-0.06-10.54c-0.47,6.25,0.6,13.85,0.47,21.47
		c-0.16,9.74-5.91,11.59-14.05,9.89c-1.87-0.39-2.45-2.08-2.94-3.7c-0.81-2.71-1.1-5.52-1.45-8.32c-0.08-0.66,0.27,0.05-0.07-0.47
		c-0.55-0.83-0.54,0.46-0.96,0.37c-1.67-2.2-0.67-4.71-0.84-7.09c1.65-5.95,0.95-11.92,0.05-17.88c0.12-2.05-0.84-4.25,0.82-6.09
		c0.64,0.66,0.51,1.49,0.5,1.57c-0.23-1.34,0.43-3.45-0.38-5.47c0.01-7.65,1.85-15.02,3.63-22.36c3.15-13.01,8.84-24.84,17.14-35.41
		c6.06-7.72,13.67-13.48,22.39-17.67c6.67-3.21,13.61-5.99,21.11-6.71c6.34-0.61,12.59-1.64,19.11-1c6.9,0.68,13.68,1.56,20.46,3.05
		c8.92,1.96,17.28,5.41,25.69,8.75c13.48,5.37,26.6,11.68,40.59,15.69c10.05,2.88,20.39,4.31,30.81,3.55
		c12.54-0.92,24.6-4.24,36.32-8.82c13.22-5.16,26-11.41,39.46-15.94c9.69-3.26,19.52-5.52,29.85-6.23
		c13.76-0.94,26.96,0.66,39.53,6.21c13.31,5.88,24.08,14.76,31.63,27.5c7.44,12.56,11.86,26.04,13.93,40.4
		c-0.48,1.3-0.86,2.6,0.17,3.84c1.41,1.15,0.78,2.71,0.82,4.13c-1.51,2.83,0.28,5.81-0.48,8.68
		C413.86,116.8,413.38,115.74,414.22,114.94z"/>
	<path class="st22" d="M389.21,90.14c0.86-1.25,1.57-0.28,1.71,0.37c1.18,5.45,2.65,10.88,3.24,16.41
		c1.35,12.64,2.32,25.32,2.12,38.07c-0.06,3.81,0.85,4.19,4.44,5.04c3.03,0.72,6.76-0.2,9.2,3.55c0.44-2.79,0.4-5.25,1.96-7.52
		c1.37-2.01-0.59-5.19,1.81-8.15c0.85,2.74,0.31,4.97,0.54,7.09c0.31,9.78-1.76,19.26-3.5,28.79c-0.91,4.98-1.72,9.98-2.58,14.97
		c-1.79,1.63-1.22,4.04-1.71,6.01c-4.05,16.3-10.53,31.79-15.63,47.74c-3.6,11.24-6.34,22.71-9.34,34.12
		c-0.33,1.25-0.16,2.63-0.22,3.96c-0.89,0.45-0.95,1.26-0.89,2.11c0.85,3.13-0.43,5.99-1.15,8.93c-1.58,2.07-1.41,4.69-1.74,6.99
		c-1.62,11.38-2.7,22.83-4.24,34.22c-0.66,4.88-1.9,9.67-1.93,14.64c-1.73,4.09-2.07,8.53-2.82,12.8
		c-1.74,9.89-4.14,19.59-7.08,29.17c-3.45,12.94-8.9,25.08-14.91,36.98c-1.51,2.79-2.88,5.67-5.03,8.06
		c-1.86-1.6-1.17-3.63-0.9-5.57c0.28-2.09,1.32-4.46-1.8-5.33c-3.35-0.93-6.45-4.99-10.28-0.71c-1.3,1.45-2.44,3.92-5.25,2.55
		c-1.12-2.2,0.22-3.88,1.19-5.63c5.54-9.55,9.68-19.72,13.04-30.21c5.67-18.26,9.48-36.92,12.3-55.8
		c1.2-17.42,3.62-34.68,6.86-51.82c3.9-22.78,10.92-44.68,18.95-66.28c1.53-4.58,3.93-8.87,4.59-13.75
		c0.12-0.54,0.31-1.05,0.55-1.54c6.17-19.73,9.91-39.86,10.99-60.53c0.77-14.67-0.28-29.13-2.96-43.53
		C388.35,94.26,387.53,92.08,389.21,90.14z"/>
	<path class="st23" d="M21.31,145.02c0.25-1.78-0.31-3.63,1.16-5.58c1.16,5.67,2.32,11.34,3.6,17.57c2.43-1.73,4.43-3.02,6.46-0.6
		c0.54,0.64,1.93,0.77,2.24,0.14c1.28-2.59,4.73-3.58,4.61-7.29c-0.26-7.62-0.04-15.25-0.1-22.88c-0.02-2.34,0.23-4.55,2.01-7.5
		c0,5.75-0.06,10.58,0.04,15.41c0.03,1.57-0.7,3.35,0.84,4.67c2.73,3.34,1.96,7.56,2.36,11.3c1.5,14.11,4.13,27.96,8.17,41.54
		c3.88,13.87,9.05,27.31,13.99,40.82c4.32,11.82,7.21,24.04,10.13,36.25c3.18,14.72,5.45,29.58,6.93,44.56
		c1.84,16.26,3.93,32.48,7.44,48.47c2.88,12.46,6.02,24.84,10.79,36.75c3.12,7.96,6.34,15.88,10.95,23.13
		c0.52,1.55,2.05,2.85,1.2,4.74c-3.15,1.26-4.49-1.37-6.07-3.07c-2.75-2.97-5.27-4.63-9.29-1.69c-4.35,3.18-4.71,3.67-3.01,9.52
		c0.45,1.56,2.52,3.52-0.39,4.91c-3.27-4.29-5.78-9.04-8.28-13.8c-5.28-10.96-9.52-22.3-12.93-33.97
		c-2.73-9.43-5.21-18.92-6.95-28.6c-1.63-9.03-3.02-18.08-4.08-27.2c-0.05-0.41-0.55-0.78-0.84-1.16
		c-0.07-5.78-1.43-11.43-1.82-17.15c-0.55-8.07-1.96-15.99-3.28-23.92c-0.77-4.62-0.79-9.44-2.92-13.78
		c-0.73-6.9-2.76-13.5-4.62-20.14c-4.99-17.78-11.49-35.06-17.66-52.44c-0.87-2.45-0.77-5.23-2.54-7.37
		c-1.6-8.74-3.98-17.31-5.4-26.11C22.67,162.08,21.16,153.65,21.31,145.02z"/>
	<path class="st23" d="M20.51,120.05c1.65,0.71,2.25,2.19,1.77,3.66c-0.98,2.97,0.15,5.76,0.27,8.63c0.09,2.13,0.94,4.6-2.08,5.59
		C20.48,131.97,20.49,126.01,20.51,120.05z"/>
	<path class="st22" d="M415.08,136.93c-0.32-0.07-0.79-0.02-0.94-0.22c-1.93-2.47-0.55-5.36-0.92-8.03
		c-0.22-1.58,0.21-2.97,1.87-3.65C415.08,128.99,415.08,132.96,415.08,136.93z"/>
	<path class="st22" d="M414.22,114.94c0,1.44,0,2.88,0,4.32c-1.32-2.8-0.74-5.75-1.72-8.52c-0.24-0.69,0.79-1.35,1.59-1.68
		C414.13,111.01,414.18,112.98,414.22,114.94z"/>
	<path class="st23" d="M21.45,110.06c1.86,2.17,0.45,4.66,1,7.26c-1.74-0.99-0.81-2.34-1.12-3.36
		C21.37,112.66,21.41,111.36,21.45,110.06z"/>
	<path class="st22" d="M413.27,104.92c-0.29,0.43-0.88,0.68-0.93,0.11c-0.12-1.35-0.73-2.89,0.76-3.95
		C413.15,102.36,413.21,103.64,413.27,104.92z"/>
	<path class="st24" d="M196.65,340.48c-2.29,6.98-5.34,13.73-6.63,21.02c-2.16,6.41-3.28,13.07-4.62,19.67
		c-1.96,9.7-3.78,19.43-5.66,29.14c-3.35-1.09-1.99-3.75-1.68-5.76c0.9-5.86,2.25-11.66,2.78-18.19c-4.64,0.06-8.97,3.75-13.57,0.17
		c-1.96,9.43-2.65,18.5-4.69,27.34c-0.46,2.38-0.45,4.95-2.6,6.66c-1.02,0.11-1.54-0.53-1.93-1.33c-0.99-4.54,0.62-8.86,1.29-13.22
		c3.21-20.9,6.12-41.87,12.03-62.25c0.51-1.76,0.9-3.52,2-5.02c3.63-2.53,4.13-7.04,6.49-10.41c3.09-4.41,4.57-4.67,8.33-0.69
		c0.57,0.6,1.04,1.47,1.79,1.7C195.57,331.04,197.61,334.84,196.65,340.48z"/>
	<path class="st25" d="M159.94,420.36c-0.2-2.4,1.5-4.52,1.02-6.95c5.64,0.19,11.32,1.15,16.47-1.53c2.23,2.84-1.24,5.15,0.36,7.45
		c-1.44,7.91-3.85,15.52-7.02,22.9c-1.87-2.16-1.87-2.16-0.04-7.43c-4.44,1.23-7.22,4.34-10.03,7.33c-2.83,3-5.26,6.33-7.3,9.95
		c-2.1,3.73-4.65,7.17-7.01,10.55c-0.89,0.1,0.24,0.82-0.15,0.29c-0.16-0.22-0.03-0.27,0.35-0.33c1.45-0.22,3.02-0.77,3.28,1.53
		c-2.33,0.64-4.66,1.28-7,1.92c-3.58-0.46-7.22-0.21-10.8-0.76c-3.88-0.61-4.39-1.44-2.29-4.67c1.44-2.22,3.08-4.42,3.8-6.91
		c1.74-6.08,6.7-8.5,11.61-11.09c3.94-3.78,7.15-8.04,8.86-13.31c0.4-1.23,0.88-2.48,2.16-3.14c0.38-0.18,1.14,0.78,1.16-0.64
		C157.4,423.48,157.61,421.32,159.94,420.36z"/>
	<path class="st26" d="M177.79,419.32c-2.52-1.98,0.68-4.24-0.15-6.4c-5.6,3.06-11.09,3.96-16.68,0.49c1.74-4.8,2-9.92,2.8-14.89
		c0.78-4.83,1.54-9.66,2.53-15c5.41,6.97,10.58,0.81,16.01-0.04c1.38,3.86-0.56,7.25-0.92,10.71c-0.46,4.37-1.66,8.65-2.42,12.99
		c-0.19,1.06-0.46,2.35,0.79,3.15C179.09,413.32,178.44,416.32,177.79,419.32z"/>
	<path class="st27" d="M145.92,443.28c1.33,1.33-0.17,1.85-0.83,1.86c-6.34,0.14-8.09,4.98-10.32,9.57
		c-1.47,3.02-2.3,6.53-6.61,8.91c4.49,0.49,7.62,1.66,11.02,1.67c1.25,0,2.67-0.54,3.69,0.73c-5.3,0.45-10.59,0.68-15.78-0.94
		c-2.67-1.27-5.35-2.54-8.02-3.81c-1.39-1.7-3.93-1.92-5.09-3.93c-0.93-2.54-4.64-2.61-5.03-5.65c0.5-1.25,1.67-1.54,2.77-1.75
		c4.41-0.87,7.91-2.94,10.14-7.01c0.88-1.61,2.27-2.8,4.17-3.19c0.49-0.05,0.97,0,1.45,0.13c4.89,2.88,9.93,4.85,15.71,2.87
		C144.14,442.41,145.13,442.48,145.92,443.28z"/>
	<path class="st28" d="M149.87,464.1c-1.96-2.3-3.94,0.46-5.93,0.01c2.68-4.5,5.59-8.83,8.38-13.21
		c4.43-6.93,9.18-13.76,17.09-17.37c1.04-0.47,2-1.11,3.27-1.83c0.16,2.71-1.08,4.84-1.97,7.04c-0.48,1.19-1.52,2.34,0.06,3.47
		C166.48,452.08,160.09,459.92,149.87,464.1z"/>
	<path class="st29" d="M250.52,378.47c-0.74-6.48-2.8-12.67-4.28-18.98c-0.3-1.27-0.6-2.54-0.89-3.8c0.51-3.26-1.48-6.02-1.81-9.13
		c-0.54-4.99,8.51-12.81,13-10.69c3.86,1.82,5.14,6.24,7.18,9.73c0.87,1.48,1.2,3.4,1.54,5.2c0.09,0.48-1.02,2.33,1.1,1.53
		c2.72,2.62,2.04,6.47,3.5,9.56c2.79,16.18,5.65,32.36,7.97,48.61c0.4,2.78,1.29,5.53,0.76,8.4c-0.29,0.85-0.73,1.55-1.71,1.7
		c-0.81-0.33-1.29-0.97-1.63-1.73c-2.5-7.25-3.02-14.91-4.26-22.41c-0.63-3.78-1.74-5.85-6.02-4.66c-2.41,0.67-4.89-0.42-7.97-0.32
		c0.34,5.99,1.54,11.74,2.45,17.54c0.35,2.21,1.69,4.91-1.59,6.29C255.39,403.02,252.96,390.74,250.52,378.47z"/>
	<path class="st30" d="M276.58,418.39c0,0.66,0.01,1.32,0.01,1.97c2.49,0.92,2.31,3.42,3.06,5.33c1.54,3.96,2.27,8.32,5.81,11.24
		c0.77,0.64,1.27,1.47,1.67,2.37c0.33,0.76,0.6,1.69,1.34,2.04c8.53,4.04,9.72,13.28,14.2,20.16c1.65,2.53,0.59,4.09-2.81,4.36
		c-3.51,0.28-6.76-1.53-10.23-0.77c-11.09-3.04-17.95-10.86-22.77-20.7c-1.72-3.51-3.65-7.08-4.13-11.11
		c-0.01-4.49-2.39-8.41-3.04-12.75c-0.24-1.59-1.12-3.12,0.04-5.76C265.05,416.9,270.91,417,276.58,418.39z"/>
	<path class="st31" d="M276.58,418.39c-0.92,0.32-1.94,1.08-2.74,0.89c-4.52-1.06-9.59,0.1-13.98-3.87
		c-0.02,5.28,1.95,9.54,2.89,13.98c0.28,1.32,1.8,2.61-0.02,3.91c-2.09-5.87-3.78-11.85-4.9-17.99c2.2-3.45-0.42-6.6-0.74-9.87
		c-0.51-5.19-1.56-10.32-2.33-15.48c-0.06-0.4,0.35-0.86,0.68-1.59c5.08,2.52,10.23,3.3,15.6-0.23c1.25,7.46,2.42,14.33,3.55,21.2
		C275.1,412.38,275.47,415.47,276.58,418.39z"/>
	<path class="st27" d="M289.63,465.1c1.4-1.49,3.1-0.99,4.6-0.44c2.61,0.95,5.17,0.57,7.8,0.37c0.16-0.68,0.51-1.36,0.33-1.57
		c-2.7-3.16-3.84-7.21-6.05-10.63c-0.45-0.69-1.45-1.39-1.38-2c0.47-4.35-3.13-5.33-5.7-7.1c-1.78-1.22-3.91-2.04-3.53-4.8
		c4.76,1.21,8.27,5.62,13.61,5.35c2.73,1.23,5.11,0.15,7.46-1.15c1.78-0.99,3.72-1.92,5.42-0.16c3.07,3.18,6.03,6.48,8.79,9.94
		c1.52,1.92,0.54,3.69-0.4,5.44c-3.37,3.56-8.21,4.47-12.26,6.8C302.09,466.8,295.86,466.93,289.63,465.1z"/>
	<path class="st5" d="M379.2,291.62c-0.39-3.07,0.93-5.93,1.15-8.93C382.45,285.98,381.06,288.83,379.2,291.62z"/>
	<path class="st32" d="M265.68,352.4c-0.11,0.45-0.23,0.9-0.34,1.36c-1.54-6.18-5.03-11.35-8.79-17.13
		c-1.27-0.79-2.83,0.4-4.41,1.21c-1.02,0.52-1.9,1.3-2.9,1.86c-5,2.8-5.52,4.02-4.05,9.82c0.4,1.58,0.86,3.15,1.23,4.74
		c0.19,0.83-0.51,1.11-1.08,1.43c-3.03-8.64-5.81-17.41-10.6-25.3c-2.47-4.06-5.21-7.97-9.97-9.74c-1.79,0.56-1.55-2.13-3.1-1.94
		c-3.45-0.09-6.84,0.12-9.96,1.82l-0.04-0.18c-2.85,0.61-4.41,2.96-6,4.96c-3.69,4.62-7.02,9.53-9.02,15.19
		c-1.8-0.97-2.1-2.27-1.26-4.15c0.99-2.22-0.06-3.4-2.35-3.8c-3.11-0.54-5.26-2.34-6.81-5.12c-1.39-2.49-2.93-2.52-4.22,0.02
		c-1.49,2.93-3.87,5.38-4.54,8.77c-0.2,1.03-0.66,2.25-1.81,2.83c-0.11,0.06-0.34-0.01-0.46-0.09c-0.13-0.09-0.2-0.26-0.3-0.39
		c-1.55-1.94-0.32-3.8,0.24-5.61c1.58-5.09,4.37-9.62,6.68-14.38c4.03-6.29,9.04-11.74,14.5-16.81c1.21-0.97,2.5-1.8,3.88-2.49
		c11.74-5.56,23.51-6.09,35.31-0.19c1.66,1.13,3.29,2.3,4.97,3.4c6.94,5.47,12.39,12.17,16.48,20.01
		c3.92,7.52,6.68,15.47,8.55,23.73C265.97,348.23,267.1,350.3,265.68,352.4z"/>
	<path class="st33" d="M320.59,458.35c0.22-4.21,0.34-4.35-3.36-7.71c-2.57-2.33-3.98-5.61-6.93-7.86c-1.74,0.91-3.56,1.89-5.4,2.79
		c-1.81,0.89-3.65,1.43-5.36-0.25c0.81-1.34,2.29-1.6,3.57-2.18c6.76-2.09,10.3-7.79,14.47-12.82c1.59-1.92,2.42-4.81,5.57-5.05
		c2.28,0.47,2.61-1.72,3.65-2.81c3.99-4.18,5.1-4.68,9.55-1.38c2.09,1.55,4.68,0.36,6.38,2.23c0.22,3.8-1.83,7.34-1.27,11.17
		c-2.57,5.77-7.1,10.12-10.86,15.02c-0.39,0.51-0.77,1.04-1.15,1.57C326.44,453.43,324.2,456.72,320.59,458.35z"/>
	<path class="st9" d="M211.71,320.52c2.93-2.77,6.28-3.18,9.96-1.82C218.5,320.11,214.97,319.53,211.71,320.52z"/>
	<path class="st34" d="M126.02,440.4c-0.63,1.2-2.32,1.21-2.82,2.58c-2.33,6.25-7.49,8.12-13.54,8.47c0.39,2.35,2.6,2.51,3.78,3.76
		c0.5,0.53,2.04,1,0.56,2.13c-3.99-2.26-6.95-5.66-9.97-9c-2.85-4.07-6.44-7.61-8.65-12.13c0.96-0.64,0.5-1.32,0.17-2.11
		c-0.82-1.96-1.76-3.92-2.26-5.97c-0.8-3.32-0.1-4.63,3.01-6.34c2.43-1.34,4.58-3.21,7.53-4.05c2.24,2.19,4.94,4.05,6.92,6.71
		c0.78,1.05,1.77,2,3.29,1.91c0.19-0.14,0.38-0.27,0.57-0.41c0.47,0.05,0.89,0.23,1.26,0.53c2.76,3.88,5.96,7.4,9,11.06
		C125.52,438.34,126.82,438.96,126.02,440.4z"/>
	<path class="st35" d="M51.35,192.78c-5.18-17.58-8.34-35.5-9.19-53.81c0-7.01,0.01-14.02,0.01-21.02c-2.03-3.9-0.31-7.8,0.2-11.62
		c0.98-7.33,2.19-14.65,5.92-21.24c1.79-2.74,3.01-5.79,4.63-8.64c8.62-15.2,21.69-24.05,38.75-26.06
		c10.27-1.21,20.7-0.75,30.93,2.38c11.87,3.64,23.25,8.43,34.53,13.45c14.52,6.47,29.55,11.52,45.25,13.49
		c9.75,1.22,19.78,0.87,29.73-0.36c7.9-0.97,15.52-2.75,23.12-4.93c7.79-2.24,15.31-5.22,22.64-8.55
		c10.54-4.8,21.18-9.37,32.3-12.43c17.01-4.69,34.11-5.79,50.77,1.96c7.06,3.29,12.67,8.17,17.35,14.38
		c4.71,6.25,7.74,13.33,10.93,20.36c1.29,7.28,2.6,14.57,3.86,21.86c0.2,1.14,0.14,2.32,0.19,3.48c0.22,4.79-0.15,9.58,0.82,14.37
		c0.76,3.76-0.74,7.52-0.86,11.34c-0.68,20.56-4.97,40.48-11.17,60.03c-0.09,0.27-0.45,0.45-0.68,0.68
		c-2.69-3.45,0.6-6.39,0.62-9.11c-1.59,3.78-1.66,8.56-3.78,12.67c-0.7,1.35-1.8,4.6-3.76,0.65c0.06-4.07,1.64-7.79,2.77-11.59
		c8.43-28.39,11.77-57.32,8.28-86.77c-1.66-14.01-5.89-27.2-16.09-37.88c-8.5-8.9-18.97-12.35-30.81-13.13
		c-14.49-0.95-27.96,3-41.21,8.17c-11.3,4.41-22.15,9.91-33.63,13.88c-15.67,5.42-31.82,9.01-48.34,8.63
		c-19.76-0.45-38.75-5.46-56.95-13.28c-12.81-5.5-25.32-11.77-38.91-15.34c-8.99-2.36-18.13-2.8-27.21-1.59
		c-21.18,2.82-33.13,16.24-39.03,35.78c-5.08,16.81-5,34.1-3.99,51.44c0.65,11.15,2.21,22.15,4.77,33.02
		c0.34,1.46,0.51,2.96-0.08,4.42c-2.27,2.29-2.63-0.12-3.11-1.42c-1.21-3.25-1.69-6.73-2.26-10.12c-1.23-7.31-2.66-14.59-3.25-20.52
		c1.86,10.86,2.88,23.36,6.94,35.31C53.15,187.53,55.18,190.68,51.35,192.78z"/>
	<path class="st23" d="M48.28,85.08c-1.26,5.22-3.28,10.21-4.2,15.57c-0.99,5.75-1.51,11.5-1.91,17.29
		c-3.17-1.72-1.95-4.69-1.64-7.07c0.65-4.97,1.82-9.87,2.77-14.81c0.78-4.03,2.75-7.62,4.24-11.38c0.02-0.05,0.32-0.06,0.45,0.01
		C48.11,84.77,48.19,84.95,48.28,85.08z"/>
	<path class="st36" d="M375.28,206.76c2.13,0.62,1.65-1.41,1.92-2.2c1.79-5.24,3.38-10.56,5.02-15.85c0.19-0.61,0.17-1.32,1.05-1.51
		c1.31,0.42,0.88,1.37,0.68,2.32c-0.86,4.12-2.77,8.03-2.58,12.37l-0.01-0.05c-0.97,4.75-4.27,8.81-4.12,13.9
		c-5.6,15.68-11.35,31.31-15.13,47.56c-1.41,6.07-2.52,12.21-3.77,18.32c-2.63-0.03-2.02-2.09-2.05-3.53
		c-0.04-1.92,0.66-3.73,1.35-5.55c-1.23,1.28-2.39,1.84-3.27-0.32c-0.71-7.3,1.88-14.05,3.82-20.81
		c3.96-13.82,8.84-27.35,13.93-40.8C372.7,209.06,372.81,206.87,375.28,206.76z"/>
	<path class="st37" d="M355.33,272.6c0.72,0.98,0.83,0.12,1.25-0.32c1.13-1.2,0.21-3.25,1.99-4.61c1.6,3.4-0.61,6.14-0.79,9
		c-0.1,1.73-1.12,3.45,0.54,4.95c-1.05,6.44-2.17,12.87-3.13,19.33c-1.12,7.59-2.46,15.16-2.82,22.84
		c-0.17,3.6-1.55,7.08-1.09,10.74c-1.99,0.8-4.01,2.7-5.94-0.13c-1.45-4.5-0.01-8.94,0.48-13.34c1.59-14.37,3.6-28.7,6.28-42.91
		C352.51,276.04,352.26,273.28,355.33,272.6z"/>
	<path class="st38" d="M346.29,335.51c1.28-2.32,3.18-1.42,5-0.98c-1.53,3.73-1.11,7.78-1.8,11.66
		c-2.65,14.88-6.03,29.57-10.65,43.96c-0.04,0.13-0.25,0.2-0.39,0.3c-2.22,1.89-1.15,5.89-4.79,7.24c-2.75-3.78,1.53-7.55,0-11.19
		c4.14-15.76,8.06-31.55,10.25-47.73C344.1,337.38,344.23,335.66,346.29,335.51z"/>
	<path class="st39" d="M323.14,425.27c-2.9,3.76-5.72,7.57-8.71,11.26c-2.91,3.6-6.2,6.76-11.02,7.66c-3.41-0.1-6.87,0.72-10.2-0.73
		c-1.47-0.64-2.76-1.41-2.09-3.26c0.62-1.7,2.12-1.27,3.35-0.94c3.33,0.9,6.48,1.06,9.15-1.62c6.42-5.74,11.69-12.41,16.1-19.8
		c0.67-1.13,1.34-2.28,2.68-2.77c2.37,0.4,1.8,2.07,1.26,3.41c-0.61,1.52-1.39,3.01-2.44,4.13c1.51-0.78,1.34-4.2,4.38-3.04
		c0.08,0.03,0.13,0.26,0.12,0.39c-0.01,0.16-0.11,0.31-0.17,0.46C324.74,422.05,323.94,423.66,323.14,425.27z"/>
	<path class="st40" d="M325.54,420.44c-0.78-1.25-1.35-0.39-1.77,0.25c-1.31,2.04-2.55,4.13-3.82,6.19
		c-1.65-0.78-1.4-1.78-0.73-2.92c1.25-2.13,2.44-4.3,3.69-6.43c0.46-0.79,0.68-1.5-0.27-2.08c-0.77-0.93-0.41-1.91,0.03-2.76
		c3.86-7.46,6.87-15.28,9.92-23.09c0.36-0.93,0.94-1.73,1.96-2.09c1.53,1.22,0.74,2.59,0.37,4.03c-0.43,1.7-1.61,3.23-1.25,5.53
		c2.94-1.69,2.34-5.04,4.02-7.02c0.06-0.08,0.33-0.05,0.46,0.02c0.13,0.07,0.21,0.25,0.31,0.38
		C335.41,400.99,331.37,411.1,325.54,420.44z"/>
	<path class="st35" d="M377.23,215.73c-0.63-0.33-1.07-0.9-0.85-1.56c1.46-4.19,2.37-8.61,4.97-12.33
		C381.44,206.91,378.19,210.98,377.23,215.73z"/>
	<path class="st41" d="M51.35,192.78c1.11-0.61,1.1-1.71,0.82-2.62c-3.01-9.92-4.56-20.16-6.34-30.33c-0.88-5-1.81-10.06-1.54-15.2
		c0.06-1.13-0.16-2.37,1.52-3.13c0.72,0.92,0.45,2.06,0.44,3.07c-0.08,6.63,1.11,13.13,2.27,19.59c1.07,5.96,1.88,12,3.85,17.77
		c0.04,0.11,0.24,0.29,0.27,0.27c0.26-0.15,0.5-0.33,0.74-0.51c2.13,0.29,2.42,2.14,2.85,3.65c6.33,22.41,15.29,43.96,21.69,66.34
		c1.26,4.41,3.23,8.79,2.27,13.61c-1.53,2.67-2.39,1.3-3.17-0.54c-1.28-3.02-1.18-6.44-2.5-8.96c1.29,2.79,1.53,6.35,2.5,9.72
		c0.37,1.27,0.55,3.1-1.79,3.13c-2.82-12.88-6.44-25.53-10.92-37.94c-3.58-9.94-7.04-19.92-10.5-29.9
		C52.9,198.16,52.17,195.45,51.35,192.78z"/>
	<path class="st7" d="M75.23,268.64c2.15-3.27-0.33-6.21-0.76-9.26c-0.34-2.41-1.33-4.73-1.98-7.1c-0.25-0.9,0.1-1.6,1.09-2.05
		c1.44,0.19,1.49,1.35,1.62,2.51c0.51,4.42,2.01,8.61,3.05,12.91c0.03,0.13,0.12,0.31,0.23,0.35c0.36,0.15,0.62,0,0.76-0.4
		c1.97,0.1,2.34,1.73,2.65,3.12c3.44,15.71,5.98,31.55,6.57,47.65c-0.25,0.94-0.63,1.81-1.62,2.22c-2.93-0.41-0.93-5.32-4.6-5.04
		c-1.88-14.38-3.46-28.81-6.91-42.94C75.17,269.98,75.25,269.3,75.23,268.64z"/>
	<path class="st42" d="M82.22,313.55c1.69-0.64,0.19-2.93,2.26-3.76c0.86,2.54,1.79,4.99,1.73,7.72c0,0.11,0.12,0.27,0.23,0.33
		c0.33,0.17,0.59,0.04,0.75-0.34c2.03,0.12,2.25,1.79,2.42,3.19c1.58,12.93,3.77,25.77,5.68,38.64c0,1.15-0.39,2.26-0.33,3.42
		c0.09,1.63,0.52,3.73-1.66,4.01c-2.18,0.28-2.23-1.93-2.65-3.47c-0.08-0.31-0.26-0.57-0.53-0.79c-1.84-3.67-2.1-7.77-2.84-11.67
		c-1.94-10.25-3.74-20.54-4.17-31C83.03,317.71,81.72,315.76,82.22,313.55z"/>
	<path class="st43" d="M90.12,362.5c2.28,0.16,0.91,3.26,3.2,3.63c2.39-1.45-1.89-4.19,0.76-5.64c1.35,0.6,1.99,1.79,2.29,3.09
		c2.38,10.18,5.96,20.03,8.51,30.16c-0.37,3.24,1,6.02,2.27,8.86c0.59,1.32,1.3,3.08-0.36,3.93c-2.09,1.07-2.67-0.97-3.49-2.33
		c-0.91-1.51-0.62-3.59-2.28-4.72c-2.81-3.79-3.51-8.42-4.88-12.74c-2.22-7-3.97-14.16-5.85-21.27
		C90.04,364.53,90.17,363.49,90.12,362.5z"/>
	<path class="st44" d="M101.02,399.47c1.97-0.22,1.61,1.54,2.12,2.54c0.8,1.58,0.89,3.76,3.96,4.28c-1.3-3.31-2.38-6.1-3.5-8.87
		c-0.44-1.1-0.94-2.15,0.43-2.95c2.82,1.7,3.05,4.95,4.36,7.52c2.75,5.42,5.9,10.66,7.88,16.44c0.48,3.83,3.31,6.38,5.18,9.45
		c0.17,0.46,0.24,0.94,0.21,1.43c-1.06,2.2-2.51,2.47-4,0.54c-0.89-1.15-1.8-2.3-2.66-3.47l0.01,0.04c-0.99-1.33-1.49-3.04-3.07-3.9
		C106.92,415.5,103.81,407.56,101.02,399.47z"/>
	<path class="st45" d="M111.94,422.53c0.32-0.67,0.87-1.02,1.36-0.34c0.9,1.25,1.88,2.53,1.71,4.24c-0.33-0.02-0.66-0.04-0.99-0.07
		C113.79,424.83,111.65,424.34,111.94,422.53z"/>
	<path class="st46" d="M183.36,318.6c-3.26,6.47-7.07,12.7-8.45,19.96c-3.21,6.58-4.28,13.79-5.93,20.81
		c-2.69,11.41-4.27,23.03-6.05,34.6c-1.3,8.43-2.71,16.83-4.07,25.25c-0.52,2.38-0.24,4.98-1.95,7.03c-1.56,2.17-1.8,4.89-3.02,7.21
		c-2,3.82-4.33,7.34-7.97,9.82c-6.92,2.67-13.41,2.5-19.09-2.92c0.96-1.01,2.26-1.03,3.18-0.37c3.47,2.47,7.35,2.63,10.51,2.29
		c-1.62-0.2-4.16,0.47-6.56-0.33c-2.58-0.86-2.94-1.88-1.71-4.26c10.03,0.8,12.41-0.58,16.33-10.35c3.18-7.91,4.47-16.33,5.86-24.68
		c3.24-19.49,5.3-39.19,11.12-58.2c2.83-9.23,5.92-18.35,10.66-26.8c1.26-2.24,2.23-4.96,5.4-5.33c1.97,2.21,0.28,3.94-0.77,5.75
		c-7.13,12.33-11.55,25.62-13.39,35.14c1.54-8.59,5.81-20.95,12.01-32.63C180.22,319.17,181.22,317.59,183.36,318.6z"/>
	<path class="st26" d="M156.9,426.25c0.13-2.49,0.92-4.79,1.95-7.03c0.36,0.38,0.72,0.76,1.09,1.14c-0.75,2.43-1.5,4.87-2.24,7.3
		c0.41,0.52-0.93,0.31-0.39-0.09c0.54-0.39-0.07,0.28-0.24-0.36C156.98,426.9,156.95,426.57,156.9,426.25z"/>
	<path class="st45" d="M132.04,438.3c-0.89,0.51-0.55,1.03,0.05,1.45c2.94,2.07,6.22,1.89,9.49,1.21c1-0.21,1.84-0.71,2.93,0.55
		c-1.5,2.16-3.83,1.77-5.95,1.77c-2.11,0-4.23,0.28-6.29-0.79c-1.71-0.88-3.3-2.28-5.43-2.14c-0.27,0.02-0.54,0.03-0.81,0.04
		c-4.19-4.26-8.6-8.35-11.01-14.01c1.52,0.43,2.21,1.73,3.13,2.85c1.8,2.18,2.59,0.88,3.11-1.03
		C126.35,429.96,129.65,433.65,132.04,438.3z"/>
	<path class="st47" d="M304.47,438.3c1.21,0.95,0.13,1.43-0.48,1.72c-3.95,1.88-6.96,1.81-12.07-0.25
		c-0.82,2.76,1.46,3.01,2.94,3.38c1.56,0.39,3.29,0.08,4.93,0.2c1.23,0.1,2.69-0.61,3.61,0.85c-1.17,0.78-2.54,0.91-3.88,1.12
		c-5.64,0.09-10.15-2.23-13.82-6.4c-0.05-0.76-0.38-1.35-1.08-1.7c-4.58-5.16-5.79-11.6-6.9-18.08
		c-2.05-10.99-3.65-22.05-5.18-33.12c-0.87-6.32-2.03-12.62-3.38-18.86c-0.39-1.81-0.38-3.6-0.68-5.38
		c-0.41-1.12-0.66-2.18,0.97-2.52c0.74,0.39,1.17,1.03,1.43,1.8c1.45,7.28,2.58,14.62,3.48,19.53c-0.45-3.18-1.66-8.7-2.49-14.28
		c-0.3-2-2-5.06,1.95-5.91c1.82,1.96,1.91,4.51,2.35,6.93c2.77,15.3,4.96,30.7,7.93,45.97c1.11,5.68,2.39,11.32,4.96,16.59
		c2.78,5.7,6.37,9.75,13.5,7.98C303.23,437.71,303.88,437.95,304.47,438.3z"/>
	<path class="st48" d="M269.62,359.49c-1.07,0.42-0.97,1.43-1.13,2.3c-1.75-2.89-1.05-6.51-2.81-9.39
		c-2.44-10.23-5.29-20.32-10.07-29.76c2.03-1.05,2.7-0.82,3.93,1.83c3.19,6.85,5.78,13.92,7.81,21.19
		C268.62,350.18,270.62,354.59,269.62,359.49z"/>
	<path class="st31" d="M277.73,419.14c2.26,6.04,3.48,12.48,6.9,18.08c-1.27,1.45-1.62-0.06-1.97-0.73
		c-2.27-4.22-4.09-8.63-5.1-13.34c-0.2-0.95-0.64-1.86-0.96-2.79C277.2,420.17,277.52,419.71,277.73,419.14z"/>
	<path class="st49" d="M239.78,303.44c-1.4-0.91-2.8-1.83-4.2-2.74c-1.86-3.05-5.26-3.23-8.13-3.9c-9.67-2.24-19.13-2.11-27.55,4.25
		c-0.91,0.55-1.81,1.09-2.72,1.64c-2.14,0.7-3.35,2.56-4.92,3.97c-1.12,1.02-2.28,2.21-3.79,0.88c-1.68-1.48-0.69-2.97,0.41-4.28
		c3.02-3.6,7.1-5.73,11.13-7.92c5.96-2.98,12.22-4.57,18.92-4.17c1.8,0.11,3.6,0.01,5.36-0.45c12.7,1.43,22.74,7.21,29.61,18.18
		c0.12,1.69,1.46,3.81-0.69,4.89c-2.23,1.12-2.95-1.43-4.27-2.47C245.76,308.84,243.87,304.87,239.78,303.44z"/>
	<path class="st50" d="M199.84,296.63c-3.97,3.01-8.78,4.99-11.56,9.48c0.8,1.64,1.74,1.51,3.06,0.47c1.83-1.44,2.78-4.28,5.83-3.89
		c-5.19,4.79-9.73,10.15-13.82,15.91c-3.39,1.23-4.1,4.65-5.32,7.3c-4.72,10.32-8.49,21.01-10.26,32.3
		c-0.22,1.38-0.97,2.68-1.57,4.26c-1.75-1.09-1.4-2.54-1.16-3.68c3.21-15.02,7.52-29.64,15.63-42.88c0.67-1.1,1.41-2.29,1.06-3.73
		c-0.63-0.98-0.36-1.98,0.22-2.77c4.39-5.94,8.57-12.15,16.64-13.57C199.11,295.96,199.52,296.23,199.84,296.63z"/>
	<path class="st51" d="M239.78,303.44c1.2-1.65,1.98-0.23,2.7,0.46c2.49,2.39,4.89,4.87,7.35,7.28c0.9,0.88,1.64,2.04,3.05,2.22
		c1.29-1.57-0.93-2.87-0.06-4.28c5.52,1.9,6.67,6.91,8.27,11.61c3.73,10.41,7.95,20.65,10.46,31.47c0.45,1.93,1.32,3.87,1.13,5.8
		c-0.15,1.56,0.41,4.52-3.06,3.44c0-0.66-0.01-1.32-0.01-1.97c-1.32-4.86-2.61-9.74-3.96-14.59c-2.06-7.4-4.94-14.5-8.09-21.49
		c-0.31-0.68-0.67-2.16-1.96-0.77C251.48,315.3,246.34,308.78,239.78,303.44z"/>
	<path class="st50" d="M199.9,301.05c1.76-4.13,6.07-4.19,9.38-5.25c8.29-2.64,16.47-0.94,24.36,2.28c1.68,0.68,1.66,0.72,1.95,2.62
		C223.62,294.41,211.73,295.1,199.9,301.05z"/>
	<path class="st0" d="M259.74,320.11c-1.45-4.2-3.92-7.75-6.91-10.98c-5.71-8.73-14.15-13.53-23.82-16.54
		c-1.4-0.44-2.88-0.58-4.33-0.85c-6.57,1.08-13.46-0.74-19.84,2.31c-2.05,0.98-4.24,1.75-6.42,2.46
		c-5.71,1.83-9.53,6.13-13.19,10.47c-1.31,1.55-3.03,2.99-3.48,5.19c-5.57,7.12-8.85,15.39-11.82,23.79
		c-4.89,13.81-7.77,28.1-10.1,42.55c-2.36,14.61-3.89,29.38-7.85,43.71c-1.06,3.82-2.35,7.53-4.33,10.97
		c-3.94,6.83-8.34,8.26-15.6,5.11c-3.6-3.37-7.2-6.73-10.8-10.1c0,0-0.12,0.09-0.12,0.09c-2.27-2.96-4.56-5.9-5.98-9.41
		c-2.85-5.87-5.68-11.75-8.56-17.6c-1.08-2.19-2.03-4.42-2.55-6.82c-4.09-11.1-7.11-22.51-9.95-33.97
		c-0.64-6.36-2.44-12.51-3.21-18.88c-0.88-7.32-2.22-14.58-2.71-21.95c-0.06-0.86-0.21-1.63-0.97-2.15
		c-0.74-9.84-1.8-19.65-3.35-29.39c-1.08-6.81-2.45-13.57-3.64-20.36c-0.15-0.84-0.2-1.64-0.98-2.15
		c-0.52-7.98-3.18-15.47-5.6-22.96c-5.04-15.54-10.49-30.95-15.7-46.43c-1.62-4.81-3.03-9.68-4.54-14.52
		c-1.59-8.07-3.44-16.1-4.68-24.23c-0.87-5.71-1.09-11.53-1.3-17.31c-0.22-6.15-0.26-12.31-0.07-18.46
		c0.41-12.79,2.13-25.4,7.33-37.21c6.69-15.17,17.65-25.37,34.45-28.41c14.76-2.67,28.87-0.31,42.75,4.93
		c12.23,4.61,23.77,10.83,36.11,15.12c10.29,3.58,20.7,6.52,31.53,8.16c4.75,0.72,9.53,0.74,14.27,1.53
		c5.89,0.98,11.92-0.4,17.8-1.06c8.31-0.93,16.5-2.94,24.59-5.29c9.72-2.82,19-6.71,28.19-10.8c12.85-5.73,25.83-11.41,39.83-13.11
		c13.73-1.67,27.54-1.15,39.63,7.27c8.88,6.18,14.72,14.68,18.42,24.71c3.97,10.79,5.96,21.96,6.02,33.45
		c0.03,5.32,0.09,10.64-0.02,15.96c-0.42,19.76-3.87,39.03-9.47,57.95c-1.17,3.95-2.32,7.91-3.48,11.86
		c-7.08,18.57-13.99,37.21-18.59,56.58c-0.71,2.99-1.72,6.06-1.36,9.26c-2.04,4.17-2.1,8.81-2.87,13.24
		c-1.89,10.95-3.67,21.94-4.82,32.98c-0.58,5.53-1.76,11.06-1.35,16.69c-1.72,2.76-1.28,6.03-1.72,8.99
		c-2.18,14.62-5.42,28.96-10.03,43c-2.87,9.78-7.01,19.02-11.9,27.94c-4.84,8.59-10.28,16.7-18.18,22.85
		c-7.53,3.13-11.59,1.78-15.6-5.19c-3.34-5.81-5-12.22-6.16-18.7c-2.86-16.01-5.4-32.08-8.14-48.12c-0.33-1.92-1.11-3.76-1.12-5.76
		c-2.41-4.05-2.55-8.78-3.79-13.17C267.05,338.01,263.43,329.06,259.74,320.11z"/>
	<path class="st45" d="M115.15,418.88c2.12,3.06,4.85,5.72,5.98,9.41C117.77,426.02,115.69,422.94,115.15,418.88z"/>
	<path class="st50" d="M165.12,367.56c-1.48-1.46-1.33-2.55-0.42-3.88C166.47,364.62,165.97,365.85,165.12,367.56z"/>
	<path class="st48" d="M259.74,320.11c3.49,5.1,5.34,10.94,7.35,16.68c2.72,7.75,5,15.63,6.37,23.74c-1.53,1.94-0.71,3.95-0.34,6.04
		c1.24,7.05,2.31,14.14,3.39,21.21c0.06,0.38-0.35,0.84-0.78,1.82c-2.22-3.79-2.37-7.7-3.01-11.35c-0.99-5.61-1.82-11.24-3.08-16.8
		c2.72-0.15,2.2-2.27,1.82-3.65c-1.83-6.76-3.35-13.61-5.76-20.21c-1.8-4.91-3.35-9.89-5.72-14.58
		C259.56,322.21,259.8,321.09,259.74,320.11z"/>
	<path class="st52" d="M198.42,296.51c4.24-3.2,9.21-4.33,14.32-4.88c3.97-0.42,7.96-0.21,11.94,0.1c-0.47,0.85-1.26,0.95-2.1,0.88
		c-7.93-0.62-15.49,0.81-22.74,4.01C199.37,296.59,198.89,296.55,198.42,296.51z"/>
	<path class="st53" d="M323.49,207.76c-0.02-15.79-0.15-31.57,0.02-47.36c0.05-5.01-0.37-10.03-1.3-14.81
		c-2.19-11.3-10.72-20.38-23.74-20.66c-10.68-0.23-18.65,4.04-25.07,12.39c-5.54,7.2-11.66,13.95-17.5,20.92
		c-6.26,7.48-12.28,15.17-18.78,22.43c-5.2,5.8-10.1,11.8-14.78,18c-0.4,0.53-0.9,0.98-1.39,1.43c-2.64,2.45-4.51,2.43-6.61-0.39
		c-10.66-14.34-22.73-27.5-34.22-41.15c-7.23-8.6-13.79-17.77-21.77-25.75c-8.75-8.75-19.29-9.8-30.27-6.11
		c-8.24,2.77-12.15,9.95-13.93,18.07c-1.56,7.1-1.76,14.42-1.92,21.66c-0.29,13.45-0.12,26.92-0.14,40.38
		c-3.05-0.54-2.4-3.1-2.6-5.04c-0.64-6.12,1.07-12.19,0.57-17.65c-0.01,1.4,0.08,3.48-0.05,5.55c-0.11,1.76-0.53,3.35-2.86,3.11
		c-0.02-12.46-0.27-24.93,0.02-37.38c0.21-8.83,2.01-17.35,7.41-24.76c4.78-6.56,11.06-9.93,19.16-10.83
		c7.29-0.81,14.1,0.06,20.58,3.34c4.33,2.19,8.02,5.33,11.14,9.02c10.56,12.51,20.84,25.25,31.56,37.63
		c7.02,8.1,13.58,16.61,20.46,25.06c3.65-1.53,5-5.22,7.33-7.86c6.55-7.44,12.74-15.2,19.06-22.84
		c7.81-9.42,15.49-18.94,23.47-28.21c3.77-4.38,7.64-8.75,12.59-11.95c3.98-2.57,8.28-4.11,13.04-4.07
		c4.44,0.03,8.86-0.42,13.31,0.82c12.5,3.47,18.53,12.34,21.24,24.33c0.93,4.1,0.94,8.2,0.94,12.34
		c-0.01,20.44-0.04,40.88-0.07,61.31c-2.84-0.39-2.28-2.76-2.43-4.51c-0.31-3.48-0.01-6.99-0.02-10.38
		C325.42,205.26,326.22,207.56,323.49,207.76z"/>
	<path class="st41" d="M135.05,215.75c-0.02-20.44-0.04-40.89-0.05-61.33c0-0.83-0.08-1.67,0.03-2.49c0.62-4.45,4.33-6.1,7.89-3.43
		c3.62,2.72,6.16,6.48,8.99,9.92c7.44,9.05,14.7,18.25,22.03,27.39c-0.39,2.22-1.99,2.83-3.95,2.98
		c-9.6-11.54-19.19-23.09-28.79-34.63c-0.38,0.11-0.75,0.21-1.13,0.32c-0.05,19.42-0.09,38.85-0.14,58.27
		c-2.66,0.22-2.84-1.67-2.89-3.53c-0.08-2.94-0.09-5.89,0.06-8.83c-0.15,3.76-0.16,7.52,0.01,11.28
		C137.2,213.39,137.72,215.4,135.05,215.75z"/>
	<path class="st54" d="M296.51,218.78c-0.02-19.45-0.05-38.91-0.08-58.36c0-2.1,0.31-4.29-1.62-6.31
		c-9.44,10.06-17.25,21.37-26.19,31.73c-2.36,0.3-4.03-0.29-4.05-3.07c8.59-11.07,17.43-21.93,26.46-32.64
		c1.53-1.81,3.35-3.52,5.86-3c2.47,0.51,3.56,2.37,4,5.02c0.32,1.96,0.62,3.89,0.63,5.87c0.02,8.13,0.01,16.25,0,24.38
		c-0.01,5.8-0.03,11.61-0.05,17.41c-1.13,2.51,0.25,5.45-1.29,8.76c-2.97-4.79-0.78-9.33-1.63-12.41c0.1,4.15-0.06,9.37,0.49,14.62
		C299.33,213.5,300.56,217.17,296.51,218.78z"/>
	<path class="st55" d="M328.43,286.6c0,25.06,0,50.12,0,75.48c-1.78-0.86-3.22-1.54-4.94-2.37c0-25.99,0-52.04,0-78.1
		c0.94-1.41,1.48-3.33,3.85-3.06C328.81,281.16,327.09,284.1,328.43,286.6z"/>
	<path class="st56" d="M112.23,211.75c1.37,1.19,0.81,2.79,0.81,4.21c0.03,44.38,0.02,88.76,0.04,133.13c0,3.81-1.4,7.45-1.16,11.31
		c0.06,0.96-0.56,2.24-1.84,2.8c-1.89-0.41-1.85-1.91-2-3.43c-1.54-15.71-0.85-31.47-0.96-47.21c1.24-1.18,0.84-2.75,1.01-4.19
		c0.17-1.49,0.21-1.49,2.36-3.07c1.9,1.31,0.7,3.33,1.41,5.87c-2.49-14.29-1.38-27.75-1.38-41.2c0.49-16.79-0.73-33.55-0.29-50.32
		C110.3,216.9,109.74,213.92,112.23,211.75z"/>
	<path class="st57" d="M328.43,286.6c-2.24-2.09-0.11-5.01-1.33-7.38c-1.65,0.2-2.15,2.05-3.62,2.39c0-24.62,0.01-49.24,0.01-73.86
		c1.88-1.76,0.73-4.01,0.92-6.02c0.16-1.67,0.17-3.22,3.04-3.9c0,5.53-0.08,10.7,0.05,15.86c0.04,1.68-0.85,3.63,0.92,5.03
		C328.42,241.35,328.42,263.98,328.43,286.6z"/>
	<path class="st58" d="M112.23,211.75c-0.05,19.64-0.1,39.29-0.14,58.93c-3-0.59-2.46-3.11-2.6-5.08
		c-0.35-5.07,0.84-10.06,0.96-15.12c0.03-0.66-0.97-0.03-0.33-0.19c0.22-0.06,0.33,0.08,0.3,0.39c-0.19,1.95-0.34,3.91-0.4,5.88
		c-0.05,1.77-0.56,3.33-2.87,3.09c0.01-22.29,0.02-44.58,0.03-66.87c2.24-0.89,1.91-2.83,1.91-4.64c0-3.94,0-7.88,0-11.83
		c2.52,0.05,1.95,1.56,1.95,2.52c0.06,7.8-0.01,15.6,0.08,23.4c0.02,1.54-0.78,3.37,0.98,4.58
		C112.15,208.46,112.19,210.11,112.23,211.75z"/>
	<path class="st59" d="M296.51,218.78c1.78-1.2,0.97-3.03,0.98-4.57c0.09-7.64,0.02-15.27,0.09-22.91c0.01-1.35-0.61-2.94,1.35-4.5
		c1.13,3.65,0.45,7.05,0.57,10.35c0.12,3.29,0.03,6.58,0.03,10.67c1.99-2.97-0.23-5.96,1.94-8c-0.01,19.28-0.01,38.56-0.02,57.85
		c-3.03-2.38-0.55-5.63-1.39-8.08c-0.69,2.25,1.21,5.37-1.69,7.81c-2.66-3.28-0.42-7.04-1.32-9.43c-0.12,3.67,0.13,8.09,0.99,12.5
		c0.41,2.13,0.87,5.06-2.35,6.17c-0.03-8.9-0.63-17.84,0.08-26.68C296.33,232.87,296.27,225.83,296.51,218.78z"/>
	<path class="st60" d="M107.15,259.65c1.69-0.65,2.09-2.01,1.93-3.62c-0.26-2.69,0.77-5.09,2.01-7.56c0,5.88-0.06,11.75,0.04,17.62
		c0.02,1.54-0.77,3.36,0.96,4.58c0,14.73,0,29.45,0,44.18c-1.53-2.84-0.45-6.02-1.73-10c-1.92,3.18-0.87,5.71-1.38,7.93
		c-0.69,0.42-1.25-0.05-1.85-0.22C107.13,294.93,107.14,277.29,107.15,259.65z"/>
	<path class="st61" d="M295.68,266.62c1.54-1.32,0.78-3.1,0.81-4.65c0.1-5.75,0.04-11.51,0.4-17.3c1.3,3.76-0.15,7.91,1.51,12.54
		c1.99-3.63,0.46-6.87,1.62-10.23c0.84,2.49,0.32,4.57,0.53,6.57c0.14,1.4-0.63,3.02,0.9,4.12c0,13.64,0,27.29,0,40.93
		c-2.12-0.22-1.42-1.82-1.42-3.01c-0.01-4.91,0.03-9.83-0.01-14.19c-0.15-1.22-1.22-0.53-0.56-0.61c0.04-0.01,0.06,0.03,0.08,0.11
		c1.12,4.66,0.23,9.38,0.44,14.07c0.08,1.69-0.79,2.43-2.5,1.85c-1.01-3.9-0.03-7.89-0.62-12.2c0.43,12.28,1.7,24.14,1.13,36.06
		c-0.1,2.08,0.5,4.4-1.6,5.96c-0.9-0.73-0.8-1.75-0.79-2.74C295.62,304.79,295.65,285.7,295.68,266.62z"/>
	<path class="st62" d="M135.05,365.43c0-23.27,0-46.55-0.01-69.82c1.28-1.22,2.16-4.2,4.44-1c0.02,17.36,0.03,34.72,0,52.08
		c-1.59,4.29-0.78,8.77-1.07,13.17C138.25,362.25,138.48,364.97,135.05,365.43z"/>
	<path class="st63" d="M264.57,182.77c1.35,1.02,2.7,2.05,4.05,3.07c-4.93,5.77-9.89,11.52-14.77,17.33
		c-4.14,4.92-8.2,9.91-12.26,14.89c-0.84,1.03-1.57,2.14-2.83,2.72c-2.24,1.04-3.97,1.07-4.08-2.08c1.21-3.59,4.3-5.82,6.55-8.59
		C248.76,200.81,256.75,191.86,264.57,182.77z"/>
	<path class="st64" d="M297.56,296.61c2.32-0.08,1.95-1.8,1.95-3.25c0.02-4.62,0.01-9.24,0.01-13.86c0.34-0.01,0.68-0.01,1.02-0.02
		c0,4.65-0.09,9.31,0.04,13.96c0.05,1.72-0.83,3.68,0.86,5.15c0.01,13.97,0.02,27.94,0.03,41.91c-1.03,9.58-0.17,19.18-0.47,28.77
		c-0.05,1.71,0.38,3.53-0.7,5.45c-2.71-1.69-2.06-4.16-2.23-6.33c-0.48-6.08,0.99-12.26-0.98-18.26
		c-0.14-16.89-0.02-33.77-0.06-50.65C297.05,298.5,296.89,297.48,297.56,296.61z"/>
	<path class="st65" d="M135.05,215.75c1.71-1.24,0.88-3.05,0.93-4.59c0.12-4.24,0.04-8.48,0.04-12.84c1.99,0.48,1.97,1.69,1.98,2.85
		c0.02,2.48,0.04,4.96,0,7.45c-0.02,1.71-0.02,3.36,1.94,4.12c0.02,14.65,0.04,29.3,0.06,43.94c-2.31,1.01-3.58-0.6-4.92-1.99
		C135.06,241.72,135.05,228.74,135.05,215.75z"/>
	<path class="st66" d="M297.59,350.53c2.37,0.07,1.89,1.86,1.9,3.27c0.04,5.32,0.01,10.64,0.07,15.96c0.01,1.29-0.36,2.64,0.42,4.04
		c0.95-1.4,0.51-2.86,0.52-4.2c0.06-8.14,0.01-16.29,0.1-24.43c0.02-1.56-0.72-3.36,0.88-4.66c0.01,19.39-0.05,38.79,0.09,58.18
		c0.03,3.87-2.65,6.12-4.99,9.04c0-9.12,0-18.23,0-27.35c1.05-8,0.15-16.04,0.49-24.06C297.15,354.39,296.52,352.38,297.59,350.53z"
		/>
	<path class="st67" d="M234.67,218.72c0.71,1.97,2.32,2.16,4.08,2.08c-3.32,3.91-6.51,8-11.1,10.5c-8.88,4.84-16.69,2.62-24.6-3.89
		c-2.53-2.08-5.02-4.37-6.27-7.6c0.66-2.06,2.31-2.16,4.07-2.06c3,3.46,5.94,6.82,10.06,9.22c5.44,3.17,13.89,2.07,18.05-2.81
		C230.65,222.16,232.39,220.13,234.67,218.72z"/>
	<path class="st68" d="M200.85,217.74c-0.93,1.53-2.89,1.02-4.07,2.06c-2.97-1.5-4.23-4.59-6.27-6.93
		c-6.95-7.93-13.7-16.04-20.53-24.08c1.06-1.34,2.01-2.81,3.95-2.98c3.55,4.07,7.16,8.08,10.63,12.21
		C190.04,204.55,195.42,211.16,200.85,217.74z"/>
	<path class="st69" d="M135.05,365.43c1.76-1.36,1.99-3.28,1.97-5.32c-0.03-2.82,0.03-5.64-0.01-8.46
		c-0.02-1.72,0.02-3.37,1.97-4.12c1.13,5.23,0.23,10.54,0.52,15.8c0.27,7.35-0.57,14.73,0.48,22.07c0,6.88,0,13.75,0,21.64
		c-4.13-3.19-4.87-6.64-4.91-10.21C134.97,386.36,135.04,375.9,135.05,365.43z"/>
	<path class="st70" d="M135.07,254.7c1.89,0.04,3.26,1.37,4.92,1.99c-0.01,6.01-0.02,12.02-0.03,18.04
		c-1.02,4.51-0.18,9.09-0.48,13.63c-0.12,1.76,0.49,3.6-0.5,5.27c-1.83-0.36-2.11,2.34-3.94,1.98
		C135.05,281.98,135.06,268.34,135.07,254.7z"/>
	<path class="st71" d="M297.59,350.53c-0.04,8.41-0.03,16.83-0.15,25.24c-0.02,1.54,0.77,3.33-0.86,4.6
		c-0.07-17.92-0.13-35.84-0.2-53.76c0-15.41,0-30.82,0-46.23c0.39,0,0.79,0,1.18,0c0,5.41,0,10.82,0,16.23
		C297.57,314.59,297.58,332.56,297.59,350.53z"/>
	<path class="st72" d="M138.98,293.63c0.02-5.11,0-10.21,0.07-15.32c0.02-1.23-0.55-2.69,0.91-3.58
		c-0.01,29.57-0.03,59.14-0.04,88.71c-0.28,0.53-0.58,0.54-0.9,0.03c-0.02-5.31-0.03-10.62-0.05-15.94
		C138.98,329.56,138.98,311.59,138.98,293.63z"/>
	<path class="st62" d="M139.02,363.46c0.3,0.01,0.6,0,0.9-0.03c0.02,7.32,0.03,14.64,0.05,21.96c-1.46-0.89-0.93-2.35-0.94-3.59
		C138.99,375.69,139.02,369.58,139.02,363.46z"/>
</g>
</svg>
